<?xml version="1.0" encoding="UTF-8"?>
<svg width="105px" height="106px" viewBox="0 0 105 106" version="1.1" xmlns="http://www.w3.org/2000/svg" xmlns:xlink="http://www.w3.org/1999/xlink">
    <!-- Generator: Sketch 49.3 (51167) - http://www.bohemiancoding.com/sketch -->
    <title>logo reducido</title>
    <desc>Created with Sketch.</desc>
    <defs></defs>
    <g id="Page-1" stroke="none" stroke-width="1" fill="none" fill-rule="evenodd">
        <g id="LOGOTIPO-NEGATIVO" transform="translate(-270.000000, -496.000000)" fill="#282828">
            <g id="logo-reducido" transform="translate(270.000000, 496.000000)">
                <path d="M40.073,53.1138 C40.073,42.9968 35.934,37.0198 24.438,37.0198 L14.322,37.0198 L13.862,37.4788 L13.862,63.2308 L20.3,63.2308 L20.3,63.2298 L20.3,42.9968 L20.76,42.5378 L24.898,42.5378 C31.336,42.5378 33.635,45.7568 33.635,53.1138 C33.635,60.4718 31.336,63.6898 24.898,63.6898 L20.761,63.6898 L20.761,69.2078 L24.438,69.2078 C35.934,69.2078 40.073,63.2298 40.073,53.1138" id="Fill-18"></path>
                <path d="M90.9446,68.9328 L90.9446,66.1778 L90.6686,65.9018 L82.4036,65.9018 L82.4036,65.6268 L85.7096,62.8718 C89.0156,60.1168 90.3936,58.4638 90.3936,55.4328 C90.3936,52.4018 88.1896,49.6468 84.0566,49.6468 C79.0976,49.6468 77.4446,52.6778 77.4446,55.7078 L77.7196,55.9838 L81.0266,55.9838 L81.3016,55.7078 C81.3016,54.0548 81.8526,52.9528 84.0566,52.9528 C85.7096,52.9528 86.5366,54.0548 86.5366,55.7078 C86.5366,57.3618 85.9856,58.4638 82.6796,61.2188 L77.7196,65.3508 L77.4446,65.9018 L77.4446,68.9328 L77.7196,69.2088 L90.6686,69.2088 L90.9446,68.9328 Z" id="Fill-20"></path>
                <polygon id="Fill-14" points="104.751 17.9092 104.751 2.6032 102.982 0.8322 87.221 0.8322 87.221 5.8962 99.687 5.8962 99.687 17.9092"></polygon>
                <polygon id="Fill-15" points="17.3594 0.832 2.0534 0.832 0.2824 2.601 0.2824 18.362 5.3464 18.362 5.3464 5.896 17.3594 5.896"></polygon>
                <polygon id="Fill-16" points="0.0554 88.3188 0.0554 103.6248 1.8244 105.3958 17.5854 105.3958 17.5854 100.3318 5.1194 100.3318 5.1194 88.3188"></polygon>
                <polygon id="Fill-17" points="87.6738 105.3958 102.9798 105.3958 104.7508 103.6268 104.7508 87.8658 99.6868 87.8658 99.6868 100.3318 87.6738 100.3318"></polygon>
                <polygon id="Fill-23" points="71.4669 69.2083 71.9269 68.7483 71.9269 37.4793 71.4669 37.0193 65.9489 37.0193 65.4889 37.4793 65.4889 49.4353 65.0289 49.8953 52.6129 49.8953 52.5979 49.8793 52.5979 55.4283 52.6129 55.4133 65.0289 55.4133 65.4889 55.8733 65.4889 68.7483 65.9489 69.2083"></polygon>
                <polygon id="Fill-24" points="52.1534 49.1843 52.1534 37.4793 51.6934 37.0193 46.1754 37.0193 45.7154 37.4793 45.7154 49.1843"></polygon>
                <polygon id="Fill-25" points="45.7157 56.1208 45.7157 68.7488 46.1757 69.2088 51.6937 69.2088 52.1537 68.7488 52.1537 56.1208"></polygon>
            </g>
        </g>
    </g>
</svg>