<?xml version="1.0" encoding="UTF-8"?>
<svg width="369px" height="106px" viewBox="0 0 369 106" version="1.1" xmlns="http://www.w3.org/2000/svg" xmlns:xlink="http://www.w3.org/1999/xlink">
    <!-- Generator: Sketch 52.6 (67491) - http://www.bohemiancoding.com/sketch -->
    <title>ruralka-logo</title>
    <desc>Created with Sketch.</desc>
    <g id="Page-1" stroke="none" stroke-width="1" fill="none" fill-rule="evenodd">
        <g id="ruralka-logo" fill="#FFFFFF">
            <g id="Group" transform="translate(184.711663, 53.000000) scale(-1, 1) rotate(-180.000000) translate(-184.711663, -53.000000) translate(0.211663, 0.000000)">
                <polygon id="Path" points="225.327533 53.8226164 225.327533 1.64523282 230.736711 1.64523282 236.145889 1.64523282 236.145889 53.8226164 236.145889 106 230.736711 106 225.327533 106"></polygon>
                <path d="M252.138241,53.8226164 L252.138241,1.64523282 L257.429828,1.64523282 L262.721415,1.64523282 L262.721415,18.4736142 C262.721415,28.556541 262.815488,35.2549889 262.933078,35.2079823 C263.050669,35.1844789 270.270746,27.5929047 278.948948,18.4031042 L294.753155,1.64523282 L302.772849,1.64523282 L310.769025,1.64523282 L306.794455,5.7113082 C290.167113,22.6337029 276.714723,36.5241685 276.714723,36.7592018 C276.714723,36.9237251 283.440918,43.3871397 291.648757,51.0962306 C299.856597,58.8288248 306.841491,65.4097561 307.170746,65.7152993 L307.7587,66.2793792 L299.997706,66.2793792 L292.236711,66.2558758 L277.655449,52.1773836 C269.635755,44.421286 263.003633,38.075388 262.90956,38.075388 C262.791969,38.075388 262.721415,53.3525499 262.721415,72.037694 L262.721415,106 L257.429828,106 L252.138241,106 L252.138241,53.8226164 Z" id="Path"></path>
                <path d="M28.8567878,67.6660754 C24.9527725,67.1490022 20.88413,65.621286 17.6386233,63.45898 C15.592543,62.0722838 12.7938815,59.1813747 11.6885277,57.2776053 C11.1946463,56.4079823 10.724283,55.7498891 10.6772467,55.7968958 C10.6066922,55.8674058 10.4891013,58.2177384 10.4185468,61.0381375 L10.2539197,66.1618625 L5.12695985,66.2323725 L0,66.2793792 L0.117590822,63.9995565 C0.21166348,62.7303769 0.329254302,48.1818182 0.399808795,31.6824834 L0.517399618,1.64523282 L5.90305927,1.64523282 L11.2887189,1.64523282 L11.3592734,19.8133038 C11.4768642,39.9791574 11.4533461,39.9086475 13.0996176,44.8913525 C15.1456979,51.0492239 19.0732314,54.9272727 24.8586998,56.4079823 C27.5397706,57.113082 30.9263862,57.254102 33.607457,56.7840355 C34.7833652,56.5725055 35.8652008,56.4079823 35.9592734,56.4079823 C36.2414914,56.4079823 36.8059273,66.9844789 36.5707457,67.2195122 C35.9592734,67.8305987 31.9141491,68.0421286 28.8567878,67.6660754 Z" id="Path"></path>
                <path d="M143.484321,67.6895787 C139.862524,67.2430155 136.522945,66.1148559 133.277438,64.2110865 C130.902103,62.8243902 127.256788,59.2518847 126.08088,57.183592 C125.634034,56.3609756 125.187189,55.7028825 125.093117,55.7028825 C124.975526,55.7028825 124.904971,56.9015521 124.904971,58.3587583 C124.904971,59.7924612 124.834417,62.1898004 124.740344,63.6470067 L124.599235,66.2793792 L119.566348,66.2793792 L114.533461,66.2793792 L114.651052,63.2944568 C114.721606,61.6257206 114.839197,47.1006652 114.93327,30.9773836 L115.05086,1.64523282 L120.460038,1.64523282 L125.845698,1.64523282 L125.845698,18.8966741 C125.845698,37.6288248 125.939771,39.3915743 127.139197,43.6221729 C127.468451,44.7738359 128.221033,46.724612 128.832505,47.9232816 C129.726195,49.7800443 130.267113,50.5086475 131.936902,52.2008869 C134.218164,54.4807095 136.099618,55.5618625 139.368642,56.4549889 C141.720459,57.0895787 147.317782,57.1600887 149.293308,56.5960089 L150.516252,56.243459 L150.633843,57.6771619 C150.986616,61.5552106 151.245315,67.0784922 151.080688,67.2430155 C150.516252,67.8070953 146.494646,68.0421286 143.484321,67.6895787 Z" id="Path"></path>
                <path d="M178.902677,67.6895787 C170.694837,66.7494457 163.545315,63.74102 158.606501,59.1343681 L157.265966,57.8886918 L160.558509,54.4807095 C162.345889,52.6004435 163.898088,51.0492239 163.992161,51.0257206 C164.109751,51.0257206 165.003442,51.6133038 165.991205,52.3654102 C169.448375,54.9037694 173.728681,56.6900222 178.291205,57.4891353 C181.41912,58.0297118 187.110516,57.8416851 189.532887,57.1365854 C193.460421,55.9849224 196.259082,53.8461197 197.69369,50.908204 C198.752008,48.745898 199.175335,47.0771619 199.36348,44.1862528 L199.528107,41.8359202 L196.023901,41.8359202 C184.735182,41.8124169 175.962906,40.8252772 170.059847,38.8745011 C161.922562,36.195122 156.936711,31.5649667 155.125813,25.0310421 C154.51434,22.8217295 154.373231,17.1809313 154.890631,14.8776053 C156.607457,7.07450111 163.286616,1.76274945 173.281836,0.258536585 C175.774761,-0.11751663 181.442639,-0.0705099778 183.629828,0.352549889 C189.909178,1.55121951 195.13021,4.81818182 198.84608,9.8713969 C199.481071,10.74102 199.974952,11.1875831 200.021989,11.0230599 C200.092543,10.8350333 200.186616,8.95476718 200.25717,6.81596452 C200.327725,4.67716186 200.445315,2.65587583 200.539388,2.27982262 L200.680497,1.64523282 L205.90153,1.64523282 L211.122562,1.64523282 L210.816826,3.69002217 C210.228872,7.80310421 210.040727,13.5849224 210.040727,29.0266075 C210.040727,38.5219512 209.946654,45.572949 209.805545,46.7716186 C208.911855,53.9636364 206.301338,59.2518847 201.950478,62.6833703 C198.987189,65.0101996 195.13021,66.5614191 190.403059,67.3370288 C187.769025,67.783592 181.372084,67.9716186 178.902677,67.6895787 Z M199.410516,31.0243902 C199.457553,30.1782705 199.386998,28.3685144 199.222371,26.9818182 C198.46979,19.4607539 194.965583,13.843459 189.227151,10.9760532 C184.170746,8.46119734 176.268642,8.39068736 171.400382,10.8350333 C168.013767,12.5507761 166.061759,15.9822616 166.061759,20.1658537 C166.061759,26.5822616 171.141683,30.7423503 180.572467,32.0585366 C184.194264,32.5756098 184.476482,32.5991131 192.284512,32.5756098 L199.339962,32.5521064 L199.410516,31.0243902 Z" id="Shape" fill-rule="nonzero"></path>
                <path d="M336.33327,67.6895787 C328.501721,66.8669623 321.657935,63.9995565 316.037094,59.1578714 L314.696558,58.0062084 L318.13021,54.3866962 L321.58738,50.767184 L322.434034,51.5427938 C325.514914,54.3161863 330.712428,56.6195122 335.839388,57.4656319 C338.826195,57.9827051 344.588145,57.8416851 346.798853,57.2305987 C353.195793,55.4678492 356.770554,50.6496674 356.794073,43.8101996 L356.794073,41.9064302 L350.279541,41.7654102 C346.681262,41.6713969 342.518547,41.4833703 341.036902,41.3658537 C332.335182,40.6137472 325.985277,38.8980044 320.975908,35.9365854 C318.859273,34.6909091 315.590249,31.4474501 314.390822,29.3791574 C311.192352,23.8793792 311.074761,15.6767184 314.085086,10.2239468 C315.166922,8.27317073 318.412428,4.95920177 320.387954,3.8075388 C325.232696,0.940133038 330.147992,-0.164523282 337.038815,0.0705099778 C341.295602,0.211529933 343.717973,0.705099778 346.775335,2.09179601 C350.279541,3.69002217 353.971893,6.67494457 356.276673,9.82439024 L357.382027,11.3286031 L357.546654,7.59157428 C357.640727,5.54678492 357.805354,3.40798226 357.922945,2.82039911 L358.11109,1.76274945 L363.332122,1.69223947 C366.201338,1.66873614 368.553155,1.71574279 368.553155,1.8097561 C368.529637,1.92727273 368.36501,3.00842572 368.176864,4.23059867 C367.871128,6.06385809 367.777055,10.1064302 367.612428,26.4412417 C367.424283,47.4767184 367.400765,47.7587583 366.295411,51.7073171 C363.755449,60.6150776 358.040535,65.5507761 348.327533,67.2430155 C345.199618,67.783592 339.296558,67.995122 336.33327,67.6895787 Z M356.723518,28.9796009 C356.629446,26.0416851 356.488337,24.7725055 356.017973,22.9862528 C353.525048,13.4439024 345.528872,8.13215078 335.29847,9.16629712 C328.101912,9.89490022 324.362524,12.9268293 323.633461,18.6146341 C322.927916,24.3964523 326.008795,28.6505543 332.452772,30.7658537 C336.991778,32.2700665 339.955067,32.5991131 349.832696,32.6461197 L356.864627,32.6696231 L356.723518,28.9796009 Z" id="Shape" fill-rule="nonzero"></path>
                <path d="M43.767304,44.7033259 C43.767304,31.1654102 43.8613767,22.3986696 44.0024857,21.1529933 C45.4606119,9.3308204 52.0456979,2.04478936 62.793499,0.329046563 C66.1801147,-0.211529933 72.2713193,-0.0235033259 74.9288719,0.681596452 C77.3982792,1.31618625 79.4208413,2.16230599 81.7491396,3.50199557 C84.1244742,4.86518847 87.7697897,8.39068736 89.0868069,10.6470067 L90.0275335,12.2217295 L90.1686424,9.58935698 C90.2627151,8.13215078 90.3332696,5.73481153 90.3332696,4.30110865 L90.3332696,1.64523282 L95.5307839,1.64523282 L100.728298,1.64523282 L100.587189,3.59600887 C100.493117,4.65365854 100.375526,19.2022173 100.304971,35.913082 L100.18738,66.2793792 L94.7782027,66.2793792 L89.392543,66.2793792 L89.392543,49.897561 C89.392543,40.6607539 89.2984704,32.3640798 89.1573614,30.9068736 C88.4988528,23.8793792 86.6173996,18.9436807 83.2307839,15.3711752 C79.8912046,11.8691796 76.0342256,10.2239468 70.5780115,9.94190687 C61.641109,9.51884701 56.208413,13.9374723 54.8208413,22.7982262 C54.6797323,23.7618625 54.5856597,32.1995565 54.5856597,45.3144124 L54.5856597,66.2793792 L49.1764818,66.2793792 L43.767304,66.2793792 L43.767304,44.7033259 Z" id="Path"></path>
            </g>
        </g>
    </g>
</svg>