<?xml version="1.0" encoding="UTF-8"?>
<svg width="32px" height="32px" viewBox="0 0 32 32" version="1.1" xmlns="http://www.w3.org/2000/svg" xmlns:xlink="http://www.w3.org/1999/xlink">
    <!-- Generator: Sketch 52.6 (67491) - http://www.bohemiancoding.com/sketch -->
    <title>Mobile</title>
    <desc>Created with Sketch.</desc>
    <g id="Mobile" stroke="none" stroke-width="1" fill="none" fill-rule="evenodd">
        <g id="Group-2" transform="translate(0.000000, 12.000000)" fill="#FFFFFF">
            <g id="iconfinder_27_Cloud_183554" fill-rule="nonzero">
                <path d="M0,14 C0,11.7828376 1.20753986,9.8416411 3.00211353,8.8029948 C3.10690617,3.92340284 7.0952729,0 12,0 C15.2334975,0 18.0687212,1.7052115 19.6554697,4.26543304 C20.2402063,4.09270499 20.8592769,4 21.5,4 C24.2845531,4 26.6601501,5.7509485 27.5858427,8.2118973 C30.129704,8.9074543 32,11.2353674 32,14 C32,17.3069658 29.3136299,20 25.9998243,20 L6.00017566,20 C2.68697795,20 0,17.3137085 0,14 Z M25.9725356,10 C25.7238035,7.7500155 23.8162709,6 21.5,6 C20.4427534,6 19.4706636,6.3645993 18.7026063,6.974922 C17.8340685,4.0963276 15.1618462,2 12,2 C8.13400656,2 5,5.1340066 5,9 C5,9.3757911 5.0296122,9.7446659 5.08663046,10.1044183 C3.31778819,10.5175755 2,12.1080834 2,14 C2,16.209139 3.79412025,18 5.99683887,18 L26.0031611,18 C28.2105543,18 30,16.2046438 30,14 C30,11.790861 28.2058797,10 26.0031611,10 L25.9725356,10 Z" id="Rectangle-1-copy-2"></path>
            </g>
            <g id="ruralka-logo" transform="translate(6.000000, 10.000000)">
                <g id="Group" transform="translate(10.011472, 3.000000) scale(-1, 1) rotate(-180.000000) translate(-10.011472, -3.000000) translate(0.011472, 0.000000)">
                    <polygon id="Path" points="12.2128744 3.04656319 12.2128744 0.0931263858 12.5060548 0.0931263858 12.7992352 0.0931263858 12.7992352 3.04656319 12.7992352 6 12.5060548 6 12.2128744 6"></polygon>
                    <path d="M13.6660293,3.04656319 L13.6660293,0.0931263858 L13.9528362,0.0931263858 L14.2396431,0.0931263858 L14.2396431,1.04567627 C14.2396431,1.61640798 14.2447419,1.99556541 14.2511154,1.99290466 C14.2574888,1.99157428 14.6488209,1.56186253 15.1191842,1.04168514 L15.9757808,0.0931263858 L16.4104525,0.0931263858 L16.8438496,0.0931263858 L16.6284257,0.323281596 C15.7272148,1.28115299 14.998088,2.06740576 14.998088,2.08070953 C14.998088,2.09002217 15.3626514,2.45587583 15.8075207,2.89223947 C16.2523901,3.32993348 16.6309751,3.70243902 16.6488209,3.71973392 L16.6806883,3.75166297 L16.2600382,3.75166297 L15.8393881,3.75033259 L15.0490758,2.95343681 C14.6144041,2.51441242 14.2549395,2.15521064 14.2498407,2.15521064 C14.2434672,2.15521064 14.2396431,3.01995565 14.2396431,4.07760532 L14.2396431,6 L13.9528362,6 L13.6660293,6 L13.6660293,3.04656319 Z" id="Path"></path>
                    <path d="M1.56405354,3.83015521 C1.35245379,3.80088692 1.13193117,3.71441242 0.956022945,3.59201774 C0.845124283,3.5135255 0.693435309,3.34988914 0.633524538,3.2421286 C0.606755895,3.19290466 0.58126195,3.1556541 0.578712556,3.15831486 C0.574888464,3.16230599 0.568514978,3.29534368 0.564690886,3.45498891 L0.555768005,3.74501109 L0.277884003,3.74900222 L0,3.75166297 L0.0063734863,3.62261641 C0.0114722753,3.55077605 0.0178457616,2.72727273 0.0216698534,1.79334812 L0.0280433397,0.0931263858 L0.319949012,0.0931263858 L0.611854685,0.0931263858 L0.615678776,1.12150776 C0.622052263,2.26297118 0.620777565,2.25898004 0.710006373,2.54101996 C0.820905035,2.88957871 1.03377948,3.10909091 1.347355,3.19290466 C1.49267049,3.23281596 1.6762269,3.24079823 1.82154238,3.21419069 C1.88527725,3.20221729 1.94391332,3.19290466 1.94901211,3.19290466 C1.96430848,3.19290466 1.99490121,3.79157428 1.98215424,3.80487805 C1.94901211,3.83946785 1.72976418,3.85144124 1.56405354,3.83015521 Z" id="Path"></path>
                    <path d="M7.77692798,3.83148559 C7.5806246,3.80620843 7.39961759,3.74235033 7.22370937,3.6345898 C7.09496495,3.55609756 6.89738687,3.35388027 6.83365201,3.2368071 C6.80943276,3.1902439 6.78521351,3.15299335 6.78011472,3.15299335 C6.77374124,3.15299335 6.76991714,3.22084257 6.76991714,3.30332594 C6.76991714,3.38447894 6.76609305,3.52017738 6.76099426,3.60266075 L6.75334608,3.75166297 L6.48056087,3.75166297 L6.20777565,3.75166297 L6.21414914,3.5827051 C6.21797323,3.48824834 6.22434672,2.66607539 6.22944551,1.75343681 L6.23581899,0.0931263858 L6.52899936,0.0931263858 L6.82090504,0.0931263858 L6.82090504,1.06962306 C6.82090504,2.12993348 6.82600382,2.22971175 6.89101338,2.4691796 C6.90885915,2.53436807 6.94964946,2.64478936 6.98279159,2.71263858 C7.03123008,2.81773836 7.06054812,2.85898004 7.15105163,2.95476718 C7.27469726,3.08381375 7.37667304,3.14501109 7.55385596,3.19556541 C7.68132569,3.23148559 7.98470363,3.23547672 8.0917782,3.20354767 L8.15806246,3.18359202 L8.16443595,3.26474501 C8.18355641,3.48425721 8.19757808,3.79689579 8.18865519,3.80620843 C8.15806246,3.83813747 7.94008923,3.85144124 7.77692798,3.83148559 Z" id="Path"></path>
                    <path d="M9.69662205,3.83148559 C9.25175271,3.77827051 8.86424474,3.60798226 8.59655832,3.34722838 L8.52390057,3.2767184 L8.70235819,3.08381375 C8.79923518,2.97738359 8.8833652,2.88957871 8.88846399,2.88824834 C8.89483748,2.88824834 8.94327597,2.92150776 8.99681326,2.96407982 C9.18419375,3.10776053 9.41618866,3.20886918 9.66347992,3.254102 C9.83301466,3.28470067 10.1414914,3.27405765 10.2727852,3.23414634 C10.4856597,3.16895787 10.6373486,3.04789357 10.7151052,2.88159645 C10.7724665,2.75920177 10.7954111,2.66474501 10.8056087,2.50110865 L10.8145315,2.36807095 L10.6246017,2.36807095 C10.012747,2.36674058 9.53728489,2.31086475 9.21733588,2.20044346 C8.77629063,2.04878049 8.50605481,1.78669623 8.40790312,1.41685144 C8.37476099,1.29179601 8.36711281,0.972505543 8.39515615,0.842128603 C8.48820905,0.400443459 8.85022307,0.0997782705 9.39196941,0.0146341463 C9.52708732,-0.0066518847 9.83428936,-0.00399113082 9.9528362,0.0199556541 C10.2931804,0.087804878 10.5761632,0.272727273 10.7775653,0.558758315 C10.8119822,0.607982262 10.8387508,0.633259424 10.8413002,0.623946785 C10.8451243,0.613303769 10.8502231,0.506873614 10.8540472,0.385809313 C10.8578713,0.264745011 10.8642447,0.150332594 10.8693435,0.129046563 L10.8769917,0.0931263858 L11.1599745,0.0931263858 L11.4429573,0.0931263858 L11.4263862,0.20886918 C11.3945188,0.441685144 11.3843212,0.768957871 11.3843212,1.64301552 C11.3843212,2.1804878 11.3792224,2.57960089 11.3715743,2.64745011 C11.3231358,3.05454545 11.1816444,3.35388027 10.9458254,3.5481153 C10.7852135,3.67982262 10.5761632,3.76762749 10.319949,3.81152993 C10.1771829,3.8368071 9.83046526,3.84745011 9.69662205,3.83148559 Z M10.8081581,1.75609756 C10.8107075,1.70820399 10.8068834,1.60576497 10.7979605,1.52727273 C10.7571702,1.10155211 10.5672403,0.783592018 10.2562141,0.621286031 C9.98215424,0.478935698 9.55385596,0.474944568 9.28999363,0.613303769 C9.10643722,0.710421286 9.00063735,0.904656319 9.00063735,1.14146341 C9.00063735,1.50465632 9.27597196,1.74013304 9.78712556,1.81463415 C9.98342894,1.84390244 9.9987253,1.84523282 10.4219248,1.84390244 L10.804334,1.84257206 L10.8081581,1.75609756 Z" id="Shape" fill-rule="nonzero"></path>
                    <path d="M18.2294455,3.83148559 C17.8049713,3.78492239 17.4340344,3.62261641 17.1293818,3.34855876 L17.056724,3.28337029 L17.2428298,3.07849224 L17.4302103,2.87361419 L17.4760994,2.91751663 C17.6430848,3.07450111 17.9247929,3.20487805 18.2026769,3.25277162 C18.3645634,3.28203991 18.6768642,3.27405765 18.7966858,3.23946785 C19.1434034,3.13968958 19.3371574,2.86696231 19.3384321,2.47982262 L19.3384321,2.37206208 L18.985341,2.36407982 C18.7903123,2.35875831 18.5646909,2.3481153 18.484385,2.34146341 C18.012747,2.29889135 17.6685787,2.20177384 17.3970682,2.03414634 C17.2823454,1.96363636 17.1051625,1.78004435 17.040153,1.66297118 C16.8667941,1.35166297 16.8604207,0.887361419 17.0235819,0.578713969 C17.082218,0.468292683 17.2581262,0.280709534 17.3652008,0.215521064 C17.6277884,0.0532150776 17.8942001,-0.00931263858 18.2676864,0.00399113082 C18.4984066,0.0119733925 18.6297004,0.0399113082 18.7954111,0.118403548 C18.985341,0.20886918 19.1854685,0.377827051 19.3103888,0.556097561 L19.3702996,0.641241685 L19.3792224,0.429711752 C19.3843212,0.313968958 19.3932441,0.192904656 19.3996176,0.159645233 L19.4098152,0.0997782705 L19.692798,0.0957871397 C19.848311,0.0944567627 19.9757808,0.0971175166 19.9757808,0.102439024 C19.9745061,0.109090909 19.9655832,0.170288248 19.9553856,0.239467849 C19.9388145,0.343237251 19.9337157,0.572062084 19.9247929,1.49667406 C19.9145953,2.68736142 19.9133206,2.70332594 19.8534098,2.92682927 C19.7157425,3.43104213 19.4059911,3.71042129 18.8795411,3.80620843 C18.7100064,3.8368071 18.3900574,3.84878049 18.2294455,3.83148559 Z M19.334608,1.64035477 C19.3295092,1.47405765 19.3218611,1.40221729 19.2963671,1.30110865 C19.1612492,0.76097561 18.7278521,0.460310421 18.1733588,0.518847007 C17.7833015,0.560088692 17.5806246,0.731707317 17.541109,1.05365854 C17.5028681,1.38093126 17.6698534,1.62172949 18.0191205,1.74146341 C18.265137,1.82660754 18.4257489,1.84523282 18.9611217,1.84789357 L19.3422562,1.84922395 L19.334608,1.64035477 Z" id="Shape" fill-rule="nonzero"></path>
                    <path d="M2.3722116,2.53037694 C2.3722116,1.76407982 2.37731039,1.26784922 2.38495857,1.19733925 C2.4639898,0.528159645 2.82090504,0.115742794 3.40344168,0.0186252772 C3.58699809,-0.0119733925 3.91714468,-0.00133037694 4.06118547,0.0385809313 C4.19502868,0.0745011086 4.30465264,0.122394678 4.43084767,0.198226164 C4.5595921,0.275388027 4.75717017,0.474944568 4.82855322,0.602660754 L4.87954111,0.691796009 L4.88718929,0.542793792 C4.89228808,0.460310421 4.89611217,0.324611973 4.89611217,0.24345898 L4.89611217,0.0931263858 L5.17782027,0.0931263858 L5.45952836,0.0931263858 L5.45188018,0.203547672 C5.44678139,0.263414634 5.4404079,1.08691796 5.43658381,2.03281596 L5.43021033,3.75166297 L5.13702996,3.75166297 L4.84512428,3.75166297 L4.84512428,2.82439024 C4.84512428,2.30155211 4.84002549,1.83192905 4.83237731,1.74944568 C4.79668579,1.35166297 4.69471001,1.07228381 4.5111536,0.870066519 C4.33014659,0.671840355 4.12109624,0.578713969 3.82536648,0.562749446 C3.34098152,0.538802661 3.04652645,0.788913525 2.97131931,1.29046563 C2.96367113,1.34501109 2.95857234,1.82261641 2.95857234,2.56496674 L2.95857234,3.75166297 L2.66539197,3.75166297 L2.3722116,3.75166297 L2.3722116,2.53037694 Z" id="Path"></path>
                </g>
            </g>
        </g>
    </g>
</svg>