<?xml version="1.0" encoding="UTF-8"?>
<svg width="371px" height="56px" viewBox="0 0 371 56" version="1.1" xmlns="http://www.w3.org/2000/svg" xmlns:xlink="http://www.w3.org/1999/xlink">
    <!-- Generator: Sketch 49.1 (51147) - http://www.bohemiancoding.com/sketch -->
    <title>typo</title>
    <desc>Created with Sketch.</desc>
    <defs></defs>
    <g id="Page-1" stroke="none" stroke-width="1" fill="none" fill-rule="evenodd">
        <g id="LOGOTIPO-POSITIVO" transform="translate(-141.000000, -265.000000)" fill="#F0FD31">
            <g id="Logo" transform="translate(111.000000, 236.000000)">
                <g id="typo" transform="translate(30.000000, 29.000000)">
                    <path d="M283.541935,54.0228471 L283.541935,46.3848471 L282.777203,45.6203765 L259.090651,45.6203765 L258.325919,44.8559059 L258.325919,2.08075882 L257.562865,1.31628824 L248.392795,1.31628824 L247.628063,2.08075882 L247.628063,54.0228471 L248.392795,54.7873176 L282.777203,54.7873176 L283.541935,54.0228471 Z M239.224402,54.7873176 L239.987456,54.0228471 L239.987456,46.3848471 L222.413725,2.08075882 L221.648993,1.31628824 L211.715868,1.31628824 L210.951137,2.08075882 L193.377405,46.3848471 L193.377405,54.0228471 L194.14046,54.7873176 L201.018012,54.7873176 L201.782744,54.0228471 L205.603047,44.0931118 L207.130833,43.3286412 L226.234028,43.3286412 L227.761814,44.0931118 L231.582118,54.0228471 L232.346849,54.7873176 L239.224402,54.7873176 Z M223.941511,33.3989059 L223.176779,34.1633765 L210.188082,34.1633765 L209.423351,33.3989059 L216.300904,15.0667 L217.063958,15.0667 L223.941511,33.3989059 Z M194.142137,10.4832294 L194.905191,9.71875882 L194.905191,2.08075882 L194.142137,1.31628824 L151.350713,1.31628824 L150.587658,2.08075882 L150.587658,9.71875882 L151.350713,10.4832294 L166.633604,10.4832294 L167.396658,11.2477 L167.396658,54.0228471 L168.16139,54.7873176 L177.33146,54.7873176 L178.094514,54.0228471 L178.094514,11.2477 L178.859246,10.4832294 L194.142137,10.4832294 Z M142.18232,54.7873176 L142.947051,54.0228471 L142.947051,2.08075882 L142.18232,1.31628824 L133.013927,1.31628824 L132.249195,2.08075882 L132.249195,54.0228471 L133.013927,54.7873176 L142.18232,54.7873176 Z M120.788285,54.7873176 L121.553016,54.0228471 L121.553016,26.5237 L120.788285,25.7609059 L97.1000553,25.7609059 L96.3370008,26.5237 L96.3370008,34.1633765 L97.1000553,34.9261706 L110.090429,34.9261706 L110.85516,35.6906412 C110.85516,41.8013765 107.034857,46.3848471 98.6295183,46.3848471 C88.6947167,46.3848471 83.3466272,38.7451706 83.3466272,28.0526412 C83.3466272,17.3584353 88.6947167,9.71875882 98.6295183,9.71875882 C107.034857,9.71875882 109.325697,13.5377588 110.85516,16.5939647 L111.618215,17.3584353 L120.788285,17.3584353 L121.553016,16.5939647 C120.023553,8.95596471 113.910732,0.553494118 98.6295183,0.553494118 C82.5818957,0.553494118 72.6487712,12.0104941 72.6487712,28.0526412 C72.6487712,44.0931118 82.5818957,55.5501118 97.8647868,55.5501118 C106.270125,55.5501118 110.090429,51.7311118 111.618215,50.2038471 L112.382946,50.2038471 L113.147678,54.0228471 L113.910732,54.7873176 L120.788285,54.7873176 Z M62.7156467,54.7873176 L63.4803782,54.0228471 L63.4803782,2.08075882 L62.7156467,1.31628824 L53.5472537,1.31628824 L52.7825222,2.08075882 L52.7825222,54.0228471 L53.5472537,54.7873176 L62.7156467,54.7873176 Z M43.6141292,28.0526412 C43.6141292,11.2477 36.7382537,1.31628824 17.6350591,1.31628824 L0.824382101,1.31628824 L0.0596505837,2.08075882 L0.0596505837,44.8575824 L10.7575066,44.8575824 L10.7575066,44.8559059 L10.7575066,11.2477 L11.5222381,10.4832294 L18.3981136,10.4832294 C29.0959696,10.4832294 32.9162732,15.8294941 32.9162732,28.0526412 C32.9162732,40.2741118 29.0959696,45.6203765 18.3981136,45.6203765 L11.5239152,45.6203765 L11.5239152,54.7873176 L17.6350591,54.7873176 C36.7382537,54.7873176 43.6141292,44.8559059 43.6141292,28.0526412 L43.6141292,28.0526412 Z" id="Fill-6"></path>
                    <path d="M370.519076,54.3289706 L370.519076,49.7522059 L370.061244,49.2945294 L356.326263,49.2945294 L356.326263,48.8368529 L361.820255,44.2600882 C367.314247,39.6833235 369.603411,36.9389412 369.603411,31.9045 C369.603411,26.8700588 365.940749,22.2932941 359.073259,22.2932941 C350.832271,22.2932941 348.086952,27.3277353 348.086952,32.3621765 L348.544784,32.8198529 L354.0371,32.8198529 L354.494932,32.3621765 C354.494932,29.6161176 355.410598,27.7854118 359.073259,27.7854118 C361.820255,27.7854118 363.193753,29.6161176 363.193753,32.3621765 C363.193753,35.1065588 362.278088,36.9389412 356.784096,41.5140294 L348.544784,48.3791765 L348.086952,49.2945294 L348.086952,54.3289706 L348.544784,54.7866471 L370.061244,54.7866471 L370.519076,54.3289706 Z" id="Fill-8"></path>
                    <polygon id="Fill-11" points="338.153156 54.7866471 338.917888 54.0221765 338.917888 2.08008824 338.153156 1.31729412 328.983086 1.31729412 328.220032 2.08008824 328.220032 21.9412353 327.4553 22.7040294 306.82432 22.7040294 306.799164 22.6788824 306.799164 31.8977941 306.82432 31.8709706 327.4553 31.8709706 328.220032 32.6354412 328.220032 54.0221765 328.983086 54.7866471"></polygon>
                    <polygon id="Fill-12" points="306.060259 21.5244647 306.060259 2.08075882 305.295528 1.31628824 296.127135 1.31628824 295.362403 2.08075882 295.362403 21.5244647"></polygon>
                    <polygon id="Fill-13" points="295.362739 33.0466794 295.362739 54.0226794 296.12747 54.78715 305.295863 54.78715 306.060595 54.0226794 306.060595 33.0466794"></polygon>
                </g>
            </g>
        </g>
    </g>
</svg>